<svg xmlns="http://www.w3.org/2000/svg" version="1.1" xmlns:xlink="http://www.w3.org/1999/xlink" xmlns:svgjs="http://svgjs.dev/svgjs" width="1000" height="623" viewBox="0 0 1000 623"><g transform="matrix(1,0,0,1,-0.6060606060606233,0.2522267206477409)"><svg viewBox="0 0 396 247" data-background-color="#ffffff" preserveAspectRatio="xMidYMid meet" height="623" width="1000" xmlns="http://www.w3.org/2000/svg" xmlns:xlink="http://www.w3.org/1999/xlink"><g id="tight-bounds" transform="matrix(1,0,0,1,0.2400000000000091,-0.09999999999999432)"><svg viewBox="0 0 395.52 247.2" height="247.2" width="395.52"><g><svg></svg></g><g><svg viewBox="0 0 395.52 247.2" height="247.2" width="395.52"><g transform="matrix(1,0,0,1,126.36567359999998,47.215199999999996)"><svg viewBox="0 0 142.78865280000002 152.7696" height="152.7696" width="142.78865280000002"><g><svg viewBox="0 0 142.78865280000002 152.7696" height="152.7696" width="142.78865280000002"><g><svg viewBox="0 0 142.78865280000002 152.7696" height="152.7696" width="142.78865280000002"><g><svg viewBox="0 0 142.78865280000002 152.7696" height="152.7696" width="142.78865280000002"><g><svg viewBox="0 0 142.78865280000002 152.7696" height="152.7696" width="142.78865280000002"><g><svg viewBox="0 0 142.78865280000002 152.7696" height="152.7696" width="142.78865280000002"><g transform="matrix(1,0,0,1,0,0)"><svg width="142.78865280000002" viewBox="1.05 -37.5 35.050000000000004 37.5" height="152.7696" data-palette-color="#c719ce"><path d="M23.1 0L17.75 0 13.3-25.7 9.25 0 6.25 0 11.75-35Q8.6-34.3 6.9-31.98 5.2-29.65 5.2-25.45L5.2-25.45Q5.2-23.75 5.43-22.68 5.65-21.6 5.95-20.95 6.25-20.3 6.58-20.03 6.9-19.75 7.05-19.65L7.05-19.65Q4.35-19.65 2.7-21.03 1.05-22.4 1.05-25.35L1.05-25.35Q1.05-27.8 2.25-30.03 3.45-32.25 5.3-33.9 7.15-35.55 9.38-36.52 11.6-37.5 13.7-37.5L13.7-37.5Q14.5-37.5 15.28-37.35 16.05-37.2 16.75-36.8L16.75-36.8 21.75-7.75 27.6-36.8 33.3-36.8 36.1 0 30.4 0 28.4-26.2 23.1 0Z" opacity="1" transform="matrix(1,0,0,1,0,0)" fill="#c719ce" class="undefined-text-0" data-fill-palette-color="primary" id="text-0"></path></svg></g></svg></g></svg></g></svg></g></svg></g></svg></g></svg></g><g><path d="M194.994 0c30.402 0 58.24 10.976 79.769 29.183l-11.148 0c-19.26-14.022-42.974-22.294-68.621-22.295-25.647 0-49.361 8.272-68.621 22.295l-11.147 0c21.528-18.206 49.366-29.183 79.768-29.183zM194.994 247.2c-30.402 0-58.24-10.976-79.768-29.183h11.147c19.26 14.022 42.974 22.294 68.621 22.295 25.647 0 49.361-8.272 68.621-22.295l11.148 0c-21.528 18.206-49.366 29.183-79.769 29.183z" fill="#e092e7" stroke="transparent" data-fill-palette-color="tertiary"></path></g></svg></g><defs></defs></svg><rect width="395.52" height="247.2" fill="none" stroke="none" visibility="hidden"></rect></g></svg></g></svg>